<?xml version="1.0" encoding="UTF-8"?>
<svg width="110px" height="110px" viewBox="0 0 110 110" version="1.1" xmlns="http://www.w3.org/2000/svg" xmlns:xlink="http://www.w3.org/1999/xlink">
    <!-- Generator: Sketch 45.2 (43514) - http://www.bohemiancoding.com/sketch -->
    <title>Artboard</title>
    <desc>Created with Sketch.</desc>
    <defs></defs>
    <g id="Page-1" stroke="none" stroke-width="1" fill="none" fill-rule="evenodd">
        <g id="Artboard">
            <circle id="Oval" fill="#204962" cx="55" cy="55" r="55"></circle>
            <g id="Group" transform="translate(14.000000, 14.000000)" fill-rule="nonzero" fill="#FFFFFF">
                <path d="M28.102,53.301 C30.3012,53.301 32.2036,51.5002 32.2036,49.1994 C32.2036,47.0002 30.4028,45.0978 28.102,45.0978 C25.8012,45.101706 24.0004,47.0001 24.0004,49.3009 C24.0004,51.5001 25.8988,53.3009 28.102,53.3009 L28.102,53.301 Z M28.102,47.1994 C29.2036,47.1994 30.2036,48.09784 30.2036,49.301 C30.2036,50.5002 29.30516,51.4026 28.102,51.4026 C26.8989,51.398694 26.0004,50.3987 26.0004,49.301 C26.0004,48.1994 27.0004,47.1994 28.102,47.1994 Z" id="Shape"></path>
                <path d="M53.199,53.301 C55.3982,53.301 57.3006,51.5002 57.3006,49.1994 C57.3006,47.0002 55.4998,45.0978 53.199,45.0978 C50.8982,45.0978 49.0974,46.8986 49.0974,49.1994 C49.101306,51.5002 50.8982,53.301 53.199,53.301 L53.199,53.301 Z M53.199,47.1994 C54.3006,47.1994 55.3006,48.09784 55.3006,49.301 C55.3006,50.5002 54.40216,51.4026 53.199,51.4026 C51.9998,51.4026 51.0974,50.50416 51.0974,49.301 C51.101306,48.1018 51.99974,47.1994 53.199,47.1994 L53.199,47.1994 Z" id="Shape"></path>
                <path d="M45.801,14.801 L35.5,14.801 C33.8984,14.801 32.6992,16.1018 32.6992,17.6018 L32.6992,17.70336 C32.6992,19.30496 34,20.50416 35.5,20.50416 L45.801,20.50416 C47.4026,20.50416 48.6018,19.20336 48.6018,17.70336 L48.6018,17.6018 C48.6018,16.1018 47.3987,14.801 45.801,14.801 Z M46.60178,17.801 C46.60178,18.301 46.20334,18.60178 45.801,18.60178 L35.5,18.60178 C35,18.60178 34.69922,18.20334 34.69922,17.801 L34.69922,17.69944 C34.69922,17.19944 35.09766,16.89866 35.5,16.89866 L45.801,16.89866 C46.301,16.89866 46.60178,17.2971 46.60178,17.69944 L46.60178,17.801 Z" id="Shape"></path>
                <path d="M12.801,69 L69.301,69 C69.60178,69 69.801,68.89844 70.00022,68.69922 C77.19942,61.19922 81.19922,51.30122 81.19922,40.80122 C81.19922,18.60222 63.19922,0.60222 41.00022,0.60222 C18.80122,0.60222 0.80122,18.70022 0.80122,40.80122 C0.80122,51.19922 4.80122,61.10222 12.00022,68.69922 C12.19944,68.89844 12.50022,69 12.801,69 Z M21.0002,20.602 C21.0002,20.50044 20.89864,18.602 22.801,16.602 C24.9026,14.4028 29.6994,11.7036 40.699,11.7036 C51.597,11.7036 56.398,14.3052 58.5,16.602 C60.3984,18.602 60.3008,20.602 60.3008,20.7036 L60.3008,23.0044 L20.9998,23.000494 L21.0002,20.602 Z M21.0002,24.8989 L60.3982,24.8989 L60.3982,39.3989 L21.0002,39.3989 L21.0002,24.8989 Z M60.3012,41.5009 L60.3012,53.6029 C60.3012,54.6029 60.00042,55.3021 59.50042,55.8021 C58.39882,56.8021 56.60202,56.70054 56.50042,56.70054 L23.19942,56.70054 C22.00022,56.70054 21.00022,55.70054 21.00022,54.50134 L21.00022,41.50134 L60.3012,41.5009 Z M52.3989,58.6999 L55.0981,62.0983 L26.0981,62.0983 L28.7973,58.6999 L52.3989,58.6999 Z M24.6019,64.1022 L56.7039,64.1022 L59.0008,67.0006 L22.3018,67.0006 L24.6019,64.1022 Z M40.9999,2.7002 C62.1019,2.7002 79.1989,19.8022 79.1989,40.8992 C79.1989,50.7 75.4997,59.8992 68.8009,67.0982 L61.5001,67.0982 L55.0001,58.6998 L56.5001,58.6998 L56.69932,58.6998 C57.39854,58.6998 59.39852,58.59824 60.80092,57.1998 C61.80092,56.30136 62.19932,55.0982 62.19932,53.5006 L62.19932,20.6996 C62.19932,20.59804 62.39854,17.8988 59.89852,15.1996 C56.50012,11.5004 50.00012,9.598 40.50052,9.598 C31.00092,9.598 24.50052,11.4964 21.10252,15.1996 C18.80172,18.0004 19.00092,20.6996 19.00092,20.6996 L19.00092,54.5006 C19.00092,56.8014 20.89932,58.6998 23.20012,58.6998 L26.30172,58.6998 L19.80172,67.0006 L13.20012,67.0006 C6.50092,59.899 2.80212,50.6026 2.80212,40.8016 C2.80212,19.8016 19.90012,2.6996 41.00112,2.6996 L40.9999,2.7002 Z" id="Shape"></path>
            </g>
        </g>
    </g>
</svg>