<?xml version="1.0" encoding="UTF-8"?>
<svg width="100pt" height="100pt" version="1.1" viewBox="0 0 100 100" xmlns="http://www.w3.org/2000/svg">
 <g>
  <path d="m37.102 68.301c2.1992 0 4.1016-1.8008 4.1016-4.1016 0-2.1992-1.8008-4.1016-4.1016-4.1016-2.3008 0.003906-4.1016 1.9023-4.1016 4.2031 0 2.1992 1.8984 4 4.1016 4zm0-6.1016c1.1016 0 2.1016 0.89844 2.1016 2.1016 0 1.1992-0.89844 2.1016-2.1016 2.1016-1.2031-0.003906-2.1016-1.0039-2.1016-2.1016 0-1.1016 1-2.1016 2.1016-2.1016z"/>
  <path d="m62.199 68.301c2.1992 0 4.1016-1.8008 4.1016-4.1016 0-2.1992-1.8008-4.1016-4.1016-4.1016s-4.1016 1.8008-4.1016 4.1016c0.003906 2.3008 1.8008 4.1016 4.1016 4.1016zm0-6.1016c1.1016 0 2.1016 0.89844 2.1016 2.1016 0 1.1992-0.89844 2.1016-2.1016 2.1016-1.1992 0-2.1016-0.89844-2.1016-2.1016 0.003906-1.1992 0.90234-2.1016 2.1016-2.1016z"/>
  <path d="m54.801 29.801h-10.301c-1.6016 0-2.8008 1.3008-2.8008 2.8008v0.10156c0 1.6016 1.3008 2.8008 2.8008 2.8008h10.301c1.6016 0 2.8008-1.3008 2.8008-2.8008v-0.10156c0-1.5-1.2031-2.8008-2.8008-2.8008zm0.80078 3c0 0.5-0.39844 0.80078-0.80078 0.80078h-10.301c-0.5 0-0.80078-0.39844-0.80078-0.80078v-0.10156c0-0.5 0.39844-0.80078 0.80078-0.80078h10.301c0.5 0 0.80078 0.39844 0.80078 0.80078z"/>
  <path d="m21.801 84h56.5c0.30078 0 0.5-0.10156 0.69922-0.30078 7.1992-7.5 11.199-17.398 11.199-27.898 0-22.199-18-40.199-40.199-40.199s-40.199 18.098-40.199 40.199c0 10.398 4 20.301 11.199 27.898 0.19922 0.19922 0.5 0.30078 0.80078 0.30078zm8.1992-48.398c0-0.10156-0.10156-2 1.8008-4 2.1016-2.1992 6.8984-4.8984 17.898-4.8984 10.898 0 15.699 2.6016 17.801 4.8984 1.8984 2 1.8008 4 1.8008 4.1016v2.3008l-39.301-0.003906zm0 4.2969h39.398v14.5h-39.398zm39.301 16.602v12.102c0 1-0.30078 1.6992-0.80078 2.1992-1.1016 1-2.8984 0.89844-3 0.89844h-33.301c-1.1992 0-2.1992-1-2.1992-2.1992v-13zm-7.9023 17.199l2.6992 3.3984h-29l2.6992-3.3984zm-27.797 5.4023h32.102l2.2969 2.8984h-36.699zm16.398-61.402c21.102 0 38.199 17.102 38.199 38.199 0 9.8008-3.6992 19-10.398 26.199h-7.3008l-6.5-8.3984h1.5 0.19922c0.69922 0 2.6992-0.10156 4.1016-1.5 1-0.89844 1.3984-2.1016 1.3984-3.6992v-32.801c0-0.10156 0.19922-2.8008-2.3008-5.5-3.3984-3.6992-9.8984-5.6016-19.398-5.6016s-16 1.8984-19.398 5.6016c-2.3008 2.8008-2.1016 5.5-2.1016 5.5v33.801c0 2.3008 1.8984 4.1992 4.1992 4.1992h3.1016l-6.5 8.3008h-6.6016c-6.6992-7.1016-10.398-16.398-10.398-26.199 0-21 17.098-38.102 38.199-38.102z"/>
 </g>
</svg>
